<svg id="filled_outline" height="512" viewBox="0 0 512 512" width="512" xmlns="http://www.w3.org/2000/svg" data-name="filled outline"><path d="m256 128-16 96h-72v-56l-24 16-9.23 15.37988-14.23 23.72022-25.22-4.73 9.68-33.8701 7-24.5 40.2-33.5a40.06731 40.06731 0 0 1 17.76-8.49l30.04-6.01h32z" fill="#f07f2f"/><path d="m336 152-22.95 19.13-25.05 20.87-41.29-8.26 9.29-55.74 32 24 16.47-6.59 23.53-9.41z" fill="#de6a1e"/><path d="m216 272-32 56-64 40-16-16 48-56 16-64v-8h48z" fill="#42566b"/><path d="m240 72v24a24 24 0 0 1 -24 24 24 24 0 0 1 -24-24v-24" fill="#f5c99d"/><path d="m192 72h48v-13.57781a18.42218 18.42218 0 0 0 -18.42219-18.42219 18.42223 18.42223 0 0 0 -10.21881 3.094l-19.359 12.906z" fill="#b1792c"/><path d="m168 224a49.24034 49.24034 0 0 0 29.24194 44.99639l42.75806 19.00361 32 88h24l-8-96-48-56z" fill="#4d6378"/><path d="m134.77 199.38-14.23 23.72-25.22-4.73 9.68-33.87z" fill="#f5c99d"/><path d="m336 152-22.95 19.13-8.58-25.72 23.53-9.41z" fill="#f5c99d"/><path d="m296 376h-48v48h-48v48h288v-240h-96v48h-48v48h-48z" fill="#f07f2f"/><path d="m464 176h-48l-8 56h64z" fill="#d45d13"/><path d="m408 64h64a0 0 0 0 1 0 0v32a32 32 0 0 1 -32 32 32 32 0 0 1 -32-32v-32a0 0 0 0 1 0 0z" fill="#f6bb00"/><path d="m168 232-128-24-16 80 128 24z" fill="#008ee6"/><path d="m40 208 16 48 80 16 32-40z" fill="#009ff5"/><path d="m208 160h16v32h-16z"/><path d="m480 96h16v-16h-16v-16a8.00008 8.00008 0 0 0 -8-8h-64a8.00008 8.00008 0 0 0 -8 8v16h-16v16h16a40.068 40.068 0 0 0 32 39.19507v32.80493h-16a8.00023 8.00023 0 0 0 -7.91943 6.86816l-7.0188 49.13184h-9.06177a8.00008 8.00008 0 0 0 -8 8v40h-40a8.00008 8.00008 0 0 0 -8 8v40h-36.63916l-3.38867-40.66406a7.9998 7.9998 0 0 0 -1.89795-4.542l-45.56885-53.16358 4.73706-28.42334 33.18872 6.6377a8.0003 8.0003 0 0 0 6.69043-1.69922l48-40a7.99972 7.99972 0 0 0 2.03369-9.72363l-8-16a8.00051 8.00051 0 0 0 -10.12646-3.84961l-35.82569 14.33007-28.40332-21.30272-.0122.01636c-.11865-.08911-.22571-.18921-.3501-.27222l-16.01221-10.67475a31.79142 31.79142 0 0 0 3.57471-14.669v-37.57812a26.42232 26.42232 0 0 0 -41.07861-21.98438l-19.35889 12.90625a7.99943 7.99943 0 0 0 -3.5625 6.65625v40a31.84651 31.84651 0 0 0 1.83728 10.67383l-17.44666 3.48926a48.15859 48.15859 0 0 0 -21.31494 10.19336l-40.19726 33.498a8.00052 8.00052 0 0 0 -2.5708 3.94727l-14.67554 51.3645-48.158-9.02954a8.00627 8.00627 0 0 0 -9.31885 6.29394l-16 80a8.00113 8.00113 0 0 0 6.37061 9.43262l102.57019 19.23193-27.17025 31.69883a8.0003 8.0003 0 0 0 .41748 10.86328l16 16a8.00115 8.00115 0 0 0 9.897 1.12695l64-40a7.9952 7.9952 0 0 0 2.70557-2.81543l25.98193-45.46851 16.71582 7.42945 26.93454 74.07026h-12.57812a8.00008 8.00008 0 0 0 -8 8v40h-40a8.00008 8.00008 0 0 0 -8 8v48a8.00008 8.00008 0 0 0 8 8h288a8.00008 8.00008 0 0 0 8-8v-240a8.00008 8.00008 0 0 0 -8-8h-9.06177l-7.0188-49.13184a8.00023 8.00023 0 0 0 -7.91943-6.86816h-16v-32.80493a40.068 40.068 0 0 0 32-39.19507zm-153.98877 53.91016-9.08484 7.5708-2.48083-7.44263 9.69116-3.87622zm-35.04 9.51757 8.593-3.437 4.16308 12.4895-17.90991 14.92505-29.94311-5.98877 5.85339-35.1206 21.47254 16.10449a7.99518 7.99518 0 0 0 7.77097 1.02733zm-74.97123-47.42773a16.01833 16.01833 0 0 1 -16-16v-16h32v16a16.01833 16.01833 0 0 1 -16 16zm-16-51.71875 15.79639-10.53125a10.42283 10.42283 0 0 1 16.20361 8.67188v5.57812h-32zm-42.68164 72.36719a32.10378 32.10378 0 0 1 14.21045-6.7959l24.47632-4.895a31.91644 31.91644 0 0 0 11.99487 6.02976v17.0127h16v-17.0127a31.83765 31.83765 0 0 0 9.61914-4.29321l13.63916 9.093-14.03516 84.21291h-57.22314v-48a7.99956 7.99956 0 0 0 -12.4375-6.65625l-24 16a7.99787 7.99787 0 0 0 -2.42236 2.54l-5.41944 9.03247-17.20459-8.6023 4.499-15.74658zm-61.16309 105.78222-3.16345 15.81714-23.90051-5.31128-18.48511-30.80859 107.74866 20.20337-24.90662 24.907-24.83349-5.51855 3.23-16.15039zm53.7793-48.77246 10.06543-6.70996v39.41211l-26.68457-5.00342zm-39.89038 6.30811 13.42041 6.71-6.92151 11.53589-11.11633-2.08423zm-67.45776 39.89355 14.55371 24.25635a8.00092 8.00092 0 0 0 5.12451 3.69336l27.58862 6.13086-1.698 8.49023 15.68946 3.13868 1.63147-8.15723 28.78845 6.39746a8.001 8.001 0 0 0 7.39209-2.15234l11.31689-11.3169-7.26806 36.34033-112.27295-21.05175zm135.4663 86.42334-56.896 35.55957-6.26123-6.26074 28.356-33.08276 7.27442 1.364a8.09136 8.09136 0 0 0 1.48291.1377 8.00186 8.00186 0 0 0 7.83594-6.43164l11.16845-55.84278a57.15126 57.15126 0 0 0 22.9795 18.58008l8.24 3.66235zm69.46582-37.01758a8.00027 8.00027 0 0 0 -4.26953-4.57617l-42.7583-19.0039a41.26491 41.26491 0 0 1 -23.68261-29.68555h59.51245l43.92212 51.24219 7.06323 84.75781h-9.70239zm232.48145 178.73438h-272v-32h40a8.00008 8.00008 0 0 0 8-8v-40h40a8.00008 8.00008 0 0 0 8-8v-40h40a8.00008 8.00008 0 0 0 8-8v-40h40a8.00008 8.00008 0 0 0 8-8v-40h80zm-17.22412-240h-45.55176l5.71436-40h34.123zm-46.77588-128v-24h48v24a24 24 0 0 1 -48 0z"/></svg>